# xmcd
#
# Track frame offsets:
#	150
#	17495
#	32698
#	54494
#	75999
#	98435
#	115877
#	136095
#	157697
#	178638
#	200658
#
# Disc length: 2988 seconds
#
# Revision: 1
# Processed by: cddbd v1.5.2PL0 Copyright (c) Steve Scherf et al.
# Submitted via: EZCDAudioConverter 8.0.2.1
#
DISCID=750baa0b
DTITLE=Various Artist - Một Đời Yêu Nhau, Một Ngày Xa Nhau
DYEAR=2002
DGENRE=Contemporary Pop
TTITLE0=Cẩm Ly - Bài ca yêu đời
TTITLE1=Quang Vinh - Đừng nuối tiếc
TTITLE2=Lê Uyên Nhi - Dấu yêu ơi
TTITLE3=Quang Vinh - Dòng sông mùa đông
TTITLE4=Thanh Thanh - Một Đời Yêu Nhau, Một Ngày Xa Nhau
TTITLE5=Quang Vinh - Mưa cuối tuần
TTITLE6=Cẩm Ly - Anh mang giấc mơ em về đâu
TTITLE7=Quang Vinh - Nói với em
TTITLE8=Thanh Thanh - Lãng quên
TTITLE9=Quang Vinh - Vỗ về nỗi đau
TTITLE10=Cẩm Ly - LK Tình yêu đầu tiên, Bài ca yêu đời
EXTD=
EXTT0=
EXTT1=
EXTT2=
EXTT3=
EXTT4=
EXTT5=
EXTT6=
EXTT7=
EXTT8=
EXTT9=
EXTT10=
PLAYORDER=
